<?xml version="1.0" encoding="UTF-8" standalone="no"?>
<svg
   xmlns:dc="http://purl.org/dc/elements/1.1/"
   xmlns:cc="http://creativecommons.org/ns#"
   xmlns:rdf="http://www.w3.org/1999/02/22-rdf-syntax-ns#"
   xmlns:svg="http://www.w3.org/2000/svg"
   xmlns="http://www.w3.org/2000/svg"
   xmlns:xlink="http://www.w3.org/1999/xlink"
   xmlns:sodipodi="http://sodipodi.sourceforge.net/DTD/sodipodi-0.dtd"
   xmlns:inkscape="http://www.inkscape.org/namespaces/inkscape"
   version="1.1"
   width="44.5"
   height="44.5"
   id="svg93"
   sodipodi:docname="logo-round.svg"
   inkscape:version="0.92.3 (2405546, 2018-03-11)">
  <metadata
     id="metadata97">
    <rdf:RDF>
      <cc:Work
         rdf:about="">
        <dc:format>image/svg+xml</dc:format>
        <dc:type
           rdf:resource="http://purl.org/dc/dcmitype/StillImage" />
        <dc:title></dc:title>
      </cc:Work>
    </rdf:RDF>
  </metadata>
  <sodipodi:namedview
     pagecolor="#ffffff"
     bordercolor="#666666"
     borderopacity="1"
     objecttolerance="10"
     gridtolerance="10"
     guidetolerance="10"
     inkscape:pageopacity="0"
     inkscape:pageshadow="2"
     inkscape:window-width="1920"
     inkscape:window-height="1020"
     id="namedview95"
     showgrid="false"
     scale-x="1"
     fit-margin-bottom="0"
     inkscape:zoom="11.313709"
     inkscape:cx="-1.5932203"
     inkscape:cy="22.00001"
     inkscape:window-x="0"
     inkscape:window-y="0"
     inkscape:window-maximized="1"
     inkscape:current-layer="svg93" />
  <defs
     id="defs53">
    <linearGradient
       x1="9.8252497"
       y1="10.01251"
       x2="54.434769"
       y2="54.247509"
       gradientUnits="userSpaceOnUse"
       id="color-1">
      <stop
         offset="0.1"
         stop-color="#000000"
         stop-opacity="0.24"
         id="stop2" />
      <stop
         offset="1"
         stop-color="#000000"
         stop-opacity="0"
         id="stop4" />
    </linearGradient>
    <radialGradient
       cx="12.44673"
       cy="13.46257"
       r="3.6990299"
       fx="12.44673"
       fy="13.46257"
       gradientUnits="userSpaceOnUse"
       id="color-2">
      <stop
         offset="0"
         stop-color="#000000"
         stop-opacity="0.99107"
         id="stop7" />
      <stop
         offset="0.63951"
         stop-color="#000000"
         stop-opacity="0.61607"
         id="stop9" />
      <stop
         offset="1"
         stop-color="#8d8d8d"
         stop-opacity="0"
         id="stop11" />
    </radialGradient>
    <radialGradient
       cx="11.94454"
       cy="13.37825"
       r="2.0076101"
       fx="11.94454"
       fy="13.37825"
       gradientUnits="userSpaceOnUse"
       id="color-3">
      <stop
         offset="0"
         stop-color="#f60000"
         id="stop14" />
      <stop
         offset="1"
         stop-color="#b30000"
         id="stop16" />
    </radialGradient>
    <radialGradient
       cx="12.44597"
       cy="12.92122"
       r="1.38596"
       fx="12.44597"
       fy="12.92122"
       gradientUnits="userSpaceOnUse"
       id="color-4">
      <stop
         offset="0"
         stop-color="#7f0000"
         id="stop19" />
      <stop
         offset="0.66667"
         stop-color="#840000"
         stop-opacity="0.49804"
         id="stop21" />
      <stop
         offset="1"
         stop-color="#000000"
         stop-opacity="0"
         id="stop23" />
    </radialGradient>
    <radialGradient
       cx="11.5677"
       cy="12.11183"
       r="1.61646"
       fx="11.5677"
       fy="12.11183"
       gradientUnits="userSpaceOnUse"
       id="color-5">
      <stop
         offset="0"
         stop-color="#d43500"
         id="stop26" />
      <stop
         offset="0.48052"
         stop-color="#d42400"
         id="stop28" />
      <stop
         offset="0.73611"
         stop-color="#d40000"
         id="stop30" />
      <stop
         offset="1"
         stop-color="#b20000"
         id="stop32" />
    </radialGradient>
    <filter
       id="dropshadow-base">
      <feColorMatrix
         type="matrix"
         values="0 0 0 0 0  0 0 0 0 0  0 0 0 0 0  0 0 0 .8 0"
         id="feColorMatrix35" />
      <feOffset
         dx="0"
         dy="1"
         id="feOffset37" />
      <feGaussianBlur
         stdDeviation="1"
         id="feGaussianBlur39"
         result="result1" />
      <feComposite
         in="SourceGraphic"
         in2="result1"
         id="feComposite41" />
    </filter>
    <filter
       id="dropshadow-banner"
       x="-0.1"
       y="-0.1"
       width="1.2"
       height="1.3">
      <feColorMatrix
         type="matrix"
         values="0 0 0 0 0  0 0 0 0 0  0 0 0 0 0  0 0 0 .4 0"
         id="feColorMatrix44" />
      <feOffset
         dx="0"
         dy="1"
         id="feOffset46" />
      <feGaussianBlur
         stdDeviation="0.5"
         id="feGaussianBlur48"
         result="result1" />
      <feComposite
         in="SourceGraphic"
         in2="result1"
         id="feComposite50" />
    </filter>
    <radialGradient
       inkscape:collect="always"
       xlink:href="#color-5"
       id="radialGradient908"
       gradientUnits="userSpaceOnUse"
       cx="11.5677"
       cy="12.11183"
       fx="11.5677"
       fy="12.11183"
       r="1.61646" />
    <radialGradient
       inkscape:collect="always"
       xlink:href="#color-5"
       id="radialGradient910"
       gradientUnits="userSpaceOnUse"
       cx="11.5677"
       cy="12.11183"
       fx="11.5677"
       fy="12.11183"
       r="1.61646" />
  </defs>
  <g
     stroke-width="none"
     stroke-miterlimit="none"
     font-weight="none"
     font-size="none"
     text-anchor="none"
     style="font-family:none;mix-blend-mode:normal;fill:none;fill-rule:nonzero;stroke:none;stroke-linecap:butt;stroke-linejoin:miter;stroke-dasharray:none;stroke-dashoffset:0"
     id="g91"
     transform="translate(-1.75,-1.750005)">
    <path
       d="M 2,24 C 2,11.84974 11.84974,2 24,2 36.15026,2 46,11.84974 46,24 46,36.15026 36.15026,46 24,46 11.84974,46 2,36.15026 2,24 Z"
       id="base 1 5"
       stroke-miterlimit="10"
       inkscape:connector-curvature="0"
       style="fill:#2c3039;stroke-width:1;stroke-miterlimit:10" />
    <path
       d="m 9.82525,12.11184 c 0,-0.40876 0.14076,-0.78464 0.37642,-1.08183 l -0.0019,-0.05267 0.04679,-0.0017 c 0.31954,-0.37122 0.79288,-0.60628 1.32112,-0.60628 0.48117,0 0.91679,0.19504 1.23211,0.51036 l 0.0046,0.0046 24.40559,-0.87178 7.95179,7.95179 C 45.70772,19.88223 46,21.90699 46,24.00001 c 0,12.15026 -9.84974,22 -22,22 -1.90691,0 -3.75716,-0.24261 -5.52155,-0.69865 L 11.16459,37.9875 10.28234,13.28829 C 9.99846,12.9783 9.82525,12.56529 9.82525,12.11184 Z m 28.3495,24.91083 -0.36402,-10.19079 -8.74637,0.31242 -0.0091,-0.0091 c -0.31495,-0.31265 -0.74869,-0.50582 -1.22755,-0.50582 -0.52824,0 -1.00157,0.23506 -1.32112,0.60628 l -0.04679,0.0017 0.0019,0.05267 c -0.23567,0.29719 -0.37642,0.67307 -0.37642,1.08183 0,0.45345 0.17322,0.86646 0.45709,1.17645 l 0.28147,7.87983 z"
       stroke-miterlimit="10"
       id="path56"
       inkscape:connector-curvature="0"
       style="fill:url(#color-1);stroke-width:1;stroke-miterlimit:10" />
    <path
       d="m 11.1646,37.98748 -0.88226,-24.6992 c -0.28388,-0.30999 -0.4571,-0.72299 -0.4571,-1.17645 0,-0.40876 0.14075,-0.78465 0.37643,-1.08184 l -0.0019,-0.05267 0.04679,-0.0017 c 0.31955,-0.37122 0.79288,-0.60628 1.32112,-0.60628 0.48348,0 0.92097,0.19691 1.23665,0.51492 l 24.40561,-0.87177 0.9648,27.01016 z"
       id="rect1692 1 1"
       stroke-miterlimit="10"
       inkscape:connector-curvature="0"
       style="fill:none;stroke-width:0;stroke-miterlimit:10" />
    <g
       id="svg899 2">
      <g
         id="layer1 1">
        <path
           d="m 11.1646,37.98748 -0.9648,-27.01016 27.01016,-0.9648 0.9648,27.01016 z"
           id="rect1692 1"
           stroke-miterlimit="10"
           inkscape:connector-curvature="0"
           style="fill:#f8d24b;stroke-width:0.26458001;stroke-miterlimit:10" />
        <g
           id="layer1-0 1"
           stroke-miterlimit="4"
           style="stroke-miterlimit:4">
          <g
             id="g879 1">
            <g
               id="g848 1">
              <g
                 id="g862 1">
                <path
                   d="m 14.33772,11.97178 c -1.35994,-0.65773 -2.97411,-0.33759 -3.60535,0.71504 -0.63124,1.05264 -0.0405,2.43916 1.31944,3.09689 1.35994,0.65773 2.97411,0.33759 3.60535,-0.71504 0.63124,-1.05264 0.0405,-2.43916 -1.31944,-3.09689 z"
                   id="path3250 1"
                   inkscape:connector-curvature="0"
                   style="opacity:0.74519001;fill:url(#color-2);stroke-width:0.829" />
                <g
                   id="g854 1">
                  <path
                     d="m 14.98321,13.37825 c 0,-1.24071 -1.00579,-2.2465 -2.2465,-2.2465 -1.24071,0 -2.2465,1.00579 -2.2465,2.2465 0,1.24071 1.00579,2.2465 2.2465,2.2465 1.24071,0 2.2465,-1.00579 2.2465,-2.2465 z"
                     id="path3202 1"
                     inkscape:connector-curvature="0"
                     style="fill:url(#color-3);stroke-width:1.00617003" />
                  <path
                     d="m 13.83193,12.92122 c 0,-0.76544 -0.62051,-1.38596 -1.38596,-1.38596 -0.76544,0 -1.38596,0.62051 -1.38596,1.38596 0,0.76544 0.62051,1.38596 1.38596,1.38596 0.76544,0 1.38596,-0.62051 1.38596,-1.38596 z"
                     id="path3468 1"
                     inkscape:connector-curvature="0"
                     style="fill:url(#color-4);stroke-width:0.62075001" />
                  <g
                     id="g3930 1"
                     style="fill:url(#radialGradient910);stroke-width:0.829">
                    <path
                       d="m 13.31016,12.11183 c 0,-0.96233 -0.78012,-1.74246 -1.74246,-1.74246 -0.96233,0 -1.74246,0.78012 -1.74246,1.74246 0,0.96233 0.78012,1.74246 1.74246,1.74246 0.96233,0 1.74246,-0.78012 1.74246,-1.74246 z"
                       id="path3204 1"
                       inkscape:connector-curvature="0"
                       style="fill:url(#radialGradient908)" />
                  </g>
                </g>
              </g>
            </g>
          </g>
        </g>
      </g>
    </g>
    <path
       d="M 2,24 C 2,11.84974 11.84974,2 24,2 36.15026,2 46,11.84974 46,24 46,36.15026 36.15026,46 24,46 11.84974,46 2,36.15026 2,24 Z"
       id="base 1 1 1"
       stroke-miterlimit="10"
       inkscape:connector-curvature="0"
       style="fill:none;stroke-width:1;stroke-miterlimit:10" />
    <g
       id="svg899 1 1"
       stroke-miterlimit="10"
       font-weight="400"
       font-size="14"
       style="font-weight:400;font-size:14px;font-family:Roboto, sans-serif;text-anchor:start;fill:#000000;stroke-width:1;stroke-miterlimit:10">
      <g
         id="layer1 1 1">
        <g
           id="layer1-0 1 1">
          <g
             id="g879 1 1">
            <g
               id="g848 1 1">
              <g
                 id="g862 1 1">
                <g
                   id="g854 1 1">
                  <g
                     id="g3930 1 1" />
                </g>
              </g>
            </g>
          </g>
        </g>
      </g>
    </g>
    <rect
       x="2"
       y="2"
       width="44"
       height="22"
       stroke-miterlimit="10"
       id="rect81"
       style="fill:none;stroke-width:1;stroke-miterlimit:10" />
    <path
       d="M 2,24 V 2 h 44 v 22 z"
       stroke-miterlimit="10"
       id="path83"
       inkscape:connector-curvature="0"
       style="fill:none;stroke-width:1;stroke-miterlimit:10" />
    <path
       d="M 2,24 V 2 h 44 v 22 z"
       stroke-miterlimit="10"
       id="path85"
       inkscape:connector-curvature="0"
       style="fill:none;stroke-width:1;stroke-miterlimit:10" />
    <path
       d="M 2,24 V 2 h 44 v 22 z"
       stroke-miterlimit="10"
       id="path87"
       inkscape:connector-curvature="0"
       style="fill:none;stroke-width:1;stroke-miterlimit:10" />
    <path
       d="M 2,24 V 2 h 44 v 22 z"
       stroke-miterlimit="10"
       id="path89"
       inkscape:connector-curvature="0"
       style="fill:none;stroke-width:1;stroke-miterlimit:10" />
  </g>
</svg>
